PathFileType	3	(X/Y/Z)	C:\Users\koon_\Desktop\
DataRate	CameraRate	NumFrames	NumMarkers	Units	OrigDataRate	OrigDataStartFrame	OrigNumFrames
100.0	100.0	10	27	mm	100.0	252	2010	
Frame#	Time	get:LFHD			get:RFHD			get:LBHD			get:RBHD			get:C7			get:T10			get:CLAV			get:STRN			get:RBAK			get:LSHO			get:LUPA			get:LELB			get:LFRA			get:LWRA			get:LWRB			get:LFIN			get:RSHO			get:RUPA			get:RELB			get:RFRA			get:RWRA			get:RWRB			get:RFIN			get:LASI			get:RASI			get:LPSI			get:RPSI			
		X1	Y1	Z1	X2	Y2	Z2	X3	Y3	Z3	X4	Y4	Z4	X5	Y5	Z5	X6	Y6	Z6	X7	Y7	Z7	X8	Y8	Z8	X9	Y9	Z9	X10	Y10	Z10	X11	Y11	Z11	X12	Y12	Z12	X13	Y13	Z13	X14	Y14	Z14	X15	Y15	Z15	X16	Y16	Z16	X17	Y17	Z17	X18	Y18	Z18	X19	Y19	Z19	X20	Y20	Z20	X21	Y21	Z21	X22	Y22	Z22	X23	Y23	Z23	X24	Y24	Z24	X25	Y25	Z25	X26	Y26	Z26	X27	Y27	Z27	
252	2.51	103.07959	1541.2672	-173.85406	-53.631504	1532.1117	-169.41896	93.932693	1528.8184	-297.7757	-32.485981	1530.6737	-313.60742	20.88018	1342.2244	-334.64377	16.148102	1085.2819	-374.53906	29.246128	1270.2233	-154.12552	40.390564	1080.6819	-115.22239	-69.204445	1279.3929	-360.63028	186.06909	1332.1215	-257.38168	274.4425	1209.7744	-241.43991	352.16992	1052.4889	-232.03099	343.65543	1012.11	-110.22511	339.19971	942.31165	-44.137703	403.71158	931.78986	-67.432495	399.85278	896.04297	16.830589	-124.50825	1339.152	-241.07417	-256.85187	1180.0894	-160.6889	-321.76785	1093.8633	-162.45341	-293.94968	1093.6929	-57.775505	-294.27884	1008.9692	70.993896	-363.95517	1003.8376	49.687992	-338.93671	997.03021	139.59967	161.29083	888.98401	-185.12675	-119.29415	876.40137	-176.76418	70.161171	925.17078	-387.20566	-39.815384	908.81708	-382.51306
253	2.52	103.42441	1541.2172	-173.62837	-53.326939	1532.2189	-169.06854	94.185501	1528.6172	-297.48871	-32.243103	1530.5271	-313.22275	20.766001	1342.5562	-334.21475	15.947797	1085.5167	-374.47586	29.498655	1270.076	-153.72951	40.59021	1080.5045	-114.97897	-69.492523	1279.6661	-360.12872	186.22926	1331.818	-256.97934	273.51788	1208.5671	-240.94405	349.91623	1049.5934	-232.54143	340.15973	1003.3856	-113.12347	334.73782	929.62653	-51.088196	399.79401	920.74707	-73.857697	394.44058	880.52325	8.0762272	-124.67022	1338.9159	-240.198	-255.24428	1178.304	-158.99985	-319.4194	1091.205	-161.95775	-291.65485	1086.5059	-56.991112	-292.90497	994.9328	67.526329	-362.71548	991.55762	45.223179	-337.60419	979.53839	135.23909	161.31721	888.96838	-185.36243	-119.23795	876.38312	-176.74886	69.968102	925.24567	-387.31967	-39.973854	908.88232	-382.50101
254	2.53	103.67428	1541.1729	-173.34969	-53.099915	1532.3066	-168.74788	94.414482	1528.465	-297.20831	-31.892017	1530.3997	-313.44424	20.634518	1342.8729	-333.76605	15.808435	1085.694	-374.27789	29.70175	1269.9453	-153.42407	40.750809	1080.3239	-115.01775	-69.814316	1279.931	-359.5838	186.42317	1331.5731	-256.56592	272.54837	1207.3218	-240.44623	347.44662	1046.6901	-233.1461	336.42752	994.77234	-116.03265	330.20129	917.32098	-58.865238	395.68082	910.1839	-80.805855	388.8045	865.33685	-1.3605508	-124.74524	1338.673	-239.33714	-253.64038	1176.1362	-158.52969	-317.80261	1088.5249	-161.27887	-289.74109	1079.1655	-56.570961	-291.41107	980.9707	63.016407	-361.32059	979.5011	40.799965	-336.08023	962.66986	129.92778	161.43195	888.77167	-185.98438	-119.15078	876.36987	-176.69923	69.782784	925.34943	-387.41226	-40.117748	908.95746	-382.46829
255	2.54	103.94557	1541.0869	-173.06152	-52.826031	1532.3933	-168.31935	94.622002	1528.3081	-296.84048	-31.661264	1530.3969	-313.13693	20.523346	1343.1466	-333.17596	15.655033	1085.9402	-374.20712	29.910402	1269.8229	-153.0782	40.95755	1080.1321	-114.79866	-70.093208	1280.1021	-358.86783	186.60515	1331.2521	-256.20093	271.46225	1206.0159	-239.94205	344.87936	1043.9358	-233.94629	332.54065	986.35492	-119.58927	325.65881	905.55017	-67.107613	391.65576	900.20166	-88.186913	383.44711	851.04413	-11.798095	-124.85172	1338.4182	-238.38255	-251.81892	1174.3301	-156.77448	-315.80804	1085.8679	-161.04752	-288.11493	1071.9514	-56.487537	-289.81821	967.3642	57.869423	-359.88641	967.74878	35.70406	-334.47021	946.49249	123.73838	161.25394	889.07141	-185.33177	-119.09678	876.3374	-176.65172	69.619789	925.45734	-387.49911	-40.282917	909.04626	-382.42157
256	2.55	104.18572	1541.0146	-172.61093	-52.599373	1532.4677	-167.853	94.801086	1528.1649	-296.45273	-31.460043	1530.6484	-312.9646	20.43014	1343.41	-332.57916	15.474515	1086.1337	-374.04141	30.162092	1269.6635	-152.47183	41.222107	1079.9762	-114.58643	-70.315514	1280.3215	-358.24255	186.80704	1330.9097	-255.77701	270.32922	1204.7029	-239.43527	342.13562	1041.347	-234.89627	328.49841	978.18512	-123.64527	321.06387	894.39825	-75.98275	387.54999	890.69086	-96.106308	378.11603	837.33118	-22.839846	-124.93932	1338.1449	-237.41211	-249.96033	1172.3767	-155.52211	-313.70618	1083.199	-160.90741	-285.99609	1064.4023	-57.27832	-288.19974	954.16992	51.998257	-358.38196	956.3642	30.09469	-332.79666	930.93958	116.75624	161.27538	889.05804	-185.5327	-119.03939	876.32477	-176.5051	69.453087	925.53986	-387.53064	-40.404781	909.09143	-382.35272
257	2.56	104.41418	1540.9056	-172.20155	-52.342033	1532.4921	-167.3613	94.94677	1528.0161	-295.99948	-31.317762	1530.6381	-312.45709	20.292784	1343.7277	-331.99936	15.38414	1086.344	-373.93341	30.421267	1269.5253	-151.90421	41.513756	1079.8132	-114.42338	-70.503532	1280.515	-357.5433	187.00697	1330.5537	-255.31099	269.15292	1203.2734	-238.93275	339.30072	1038.7637	-236.12521	324.37952	970.33752	-128.40768	316.56863	883.98462	-85.343361	383.49768	881.86725	-104.41399	372.96719	824.29572	-34.641922	-125.0189	1337.8986	-236.43507	-248.21106	1170.3756	-154.49126	-311.64569	1080.4663	-160.65277	-284.12653	1057.4012	-58.043186	-286.46875	941.38458	45.506054	-356.77408	945.39063	23.984936	-331.02567	915.93353	109.172	161.29158	889.05054	-185.6861	-118.95423	876.29352	-176.36865	69.280373	925.6131	-387.52933	-40.55587	909.15112	-382.2547
258	2.57	104.6984	1540.8181	-171.7007	-52.14156	1532.5287	-166.7869	95.089928	1527.8823	-295.54385	-31.234196	1530.5625	-311.80051	20.202929	1343.9939	-331.26733	15.242197	1086.6066	-373.84998	30.66678	1269.4048	-151.51945	41.850903	1079.6154	-114.35977	-70.673294	1280.6768	-356.81732	187.28711	1330.2084	-254.81812	267.88013	1201.7814	-238.51529	336.3335	1036.2205	-237.75589	320.21185	962.88849	-133.36005	312.07626	874.18268	-95.171524	379.56409	873.5719	-113.14104	367.87491	811.96289	-46.90416	-125.08455	1337.6056	-235.42851	-246.27028	1168.0883	-154.07175	-309.53622	1077.8141	-160.62349	-282.22736	1050.4707	-58.991409	-284.76224	929.16522	38.610703	-355.1792	934.91797	17.547325	-329.29398	901.43292	101.0535	161.36942	889.03302	-185.85077	-118.85519	876.25067	-176.19992	69.142281	925.71344	-387.53922	-40.697727	909.23431	-382.16846
259	2.58	104.89964	1540.7256	-171.21921	-51.948853	1532.5437	-166.1852	95.166977	1527.7463	-295.04959	-31.282097	1529.806	-309.62857	20.082006	1344.2252	-330.54517	15.067991	1086.7256	-373.54089	30.926197	1269.2032	-151.03976	42.15316	1079.394	-113.91947	-70.859039	1280.7977	-355.95786	187.6243	1329.8867	-254.36041	266.70935	1200.2183	-238.22284	333.19943	1033.7939	-239.79828	316.14963	956.10431	-139.28188	307.57413	865.19647	-105.23814	375.72919	865.85223	-122.19446	362.86044	800.34814	-59.565159	-125.16531	1337.344	-234.44356	-244.75438	1165.9277	-153.30818	-307.4498	1075.1244	-160.87489	-280.12967	1043.566	-60.301979	-283.08301	917.46112	31.173717	-353.45554	925.08264	10.85247	-327.50348	887.39648	92.468811	161.43889	889.008	-185.94574	-118.79992	876.25128	-175.99455	68.98996	925.78455	-387.53235	-40.832821	909.25281	-382.0614
260	2.59	105.04749	1540.6206	-170.73222	-51.761269	1532.5256	-165.50703	95.282623	1527.6206	-294.49249	-31.098335	1530.166	-310.37567	20.025852	1344.401	-329.76794	14.885519	1086.8795	-373.28152	31.192823	1269.0201	-150.51889	42.526882	1079.2047	-113.80278	-71.076614	1280.9159	-355.15543	187.98228	1329.6005	-253.89418	265.53546	1198.6725	-238.33061	329.86621	1031.2948	-242.27303	312.1098	949.43127	-144.82935	303.59778	857.0351	-115.3774	371.91525	858.78033	-131.63013	358.34155	789.81281	-72.634094	-125.31712	1337.0731	-233.33389	-243.01338	1163.6146	-152.61258	-305.31766	1072.3297	-161.21176	-277.82932	1036.8456	-62.008331	-281.35178	906.52795	23.588757	-351.85278	915.80688	3.8553956	-325.71796	873.82355	83.452049	161.50642	888.96753	-186.03812	-118.71583	876.20483	-175.80344	68.815262	925.84204	-387.44281	-40.98225	909.31958	-381.97385
261	2.6	105.28326	1540.5387	-170.09093	-51.601814	1532.5095	-164.82124	95.346077	1527.4791	-293.9169	-30.907539	1530.3663	-309.95316	19.905888	1344.5538	-328.98819	14.673273	1086.9882	-372.84409	31.526518	1268.8589	-149.91705	42.874519	1078.9729	-113.43628	-71.279648	1281.0081	-354.28168	188.37845	1329.3196	-253.55998	264.43018	1196.972	-238.64407	326.41486	1028.7067	-245.22649	308.33621	943.34698	-151.13792	299.82867	849.66064	-125.78478	368.17749	852.19489	-141.38	354.16809	780.1319	-86.019264	-125.53381	1336.8119	-232.31522	-241.36388	1161.1661	-152.16522	-303.13107	1069.4874	-162.02359	-275.43875	1030.3492	-64.168579	-279.61008	895.83289	15.180942	-350.1842	907.10254	-3.3935597	-323.99103	860.91504	74.030067	161.55592	888.96448	-186.07668	-118.62659	876.12531	-175.60039	68.653656	925.88959	-387.37671	-41.125103	909.32117	-381.77261
